<svg width="321" height="31" viewBox="0 0 321 31" fill="none" xmlns="http://www.w3.org/2000/svg">
    <rect width="321" height="31" rx="10" fill="#00BF4D" fill-opacity="0.1"/>
    <path d="M45.376 20.011L43.209 12.355H44.54L46.124 18.581L47.84 12.355H49.248L50.843 18.548L52.438 12.355H53.78L51.514 20H50.095L48.489 14.214L46.784 20L45.376 20.011ZM57.3663 14.896C56.5193 14.896 55.8373 15.468 55.7053 16.425H59.0603C59.0383 15.49 58.3013 14.896 57.3663 14.896ZM60.2043 18.196C59.8633 19.252 58.9063 20.099 57.4213 20.099C55.6833 20.099 54.3963 18.867 54.3963 16.964C54.3963 15.061 55.6283 13.84 57.4213 13.84C59.1483 13.84 60.3693 15.039 60.3693 16.821C60.3693 17.03 60.3583 17.228 60.3253 17.437H55.6943C55.7823 18.438 56.4973 19.043 57.4213 19.043C58.1913 19.043 58.6203 18.669 58.8513 18.196H60.2043ZM64.0427 16.942C64.0427 15.072 65.3077 13.84 66.9137 13.84C67.7057 13.84 68.5417 14.214 69.0037 14.786V11.86H70.2687V20H69.0037V19.087C68.6187 19.637 67.8927 20.099 66.9027 20.099C65.3077 20.099 64.0427 18.812 64.0427 16.942ZM69.0037 16.964C69.0037 15.666 68.1127 14.929 67.1667 14.929C66.2317 14.929 65.3297 15.633 65.3297 16.942C65.3297 18.251 66.2317 19.01 67.1667 19.01C68.1127 19.01 69.0037 18.273 69.0037 16.964ZM77.6908 16.964C77.6908 18.867 76.2828 20.099 74.5448 20.099C72.8178 20.099 71.5088 18.867 71.5088 16.964C71.5088 15.061 72.8728 13.84 74.5998 13.84C76.3268 13.84 77.6908 15.061 77.6908 16.964ZM72.7848 16.964C72.7848 18.339 73.5988 19.01 74.5448 19.01C75.4798 19.01 76.4038 18.339 76.4038 16.964C76.4038 15.589 75.5128 14.929 74.5778 14.929C73.6318 14.929 72.7848 15.589 72.7848 16.964ZM86.0889 20V16.612C86.0889 15.501 85.4839 14.929 84.5709 14.929C83.6469 14.929 83.0419 15.501 83.0419 16.612V20H81.7879V13.939H83.0419V14.632C83.4489 14.137 84.1199 13.84 84.8459 13.84C86.2649 13.84 87.3319 14.731 87.3319 16.425V20H86.0889ZM94.7064 16.964C94.7064 18.867 93.2984 20.099 91.5604 20.099C89.8334 20.099 88.5244 18.867 88.5244 16.964C88.5244 15.061 89.8884 13.84 91.6154 13.84C93.3424 13.84 94.7064 15.061 94.7064 16.964ZM89.8004 16.964C89.8004 18.339 90.6144 19.01 91.5604 19.01C92.4954 19.01 93.4194 18.339 93.4194 16.964C93.4194 15.589 92.5284 14.929 91.5934 14.929C90.6474 14.929 89.8004 15.589 89.8004 16.964ZM96.1441 18.317V14.962H95.4291V13.939H96.1441V12.432H97.4091V13.939H98.8831V14.962H97.4091V18.317C97.4091 18.768 97.5851 18.955 98.1131 18.955H98.8831V20H97.8931C96.8151 20 96.1441 19.549 96.1441 18.317ZM107.417 18.306C107.417 19.329 106.526 20.099 105.096 20.099C103.644 20.099 102.621 19.241 102.566 18.141H103.864C103.908 18.636 104.381 19.043 105.074 19.043C105.8 19.043 106.185 18.735 106.185 18.317C106.185 17.129 102.665 17.811 102.665 15.589C102.665 14.621 103.567 13.84 104.997 13.84C106.372 13.84 107.274 14.577 107.34 15.787H106.086C106.042 15.259 105.635 14.896 104.953 14.896C104.282 14.896 103.93 15.171 103.93 15.578C103.93 16.799 107.351 16.117 107.417 18.306ZM108.97 18.317V14.962H108.255V13.939H108.97V12.432H110.235V13.939H111.709V14.962H110.235V18.317C110.235 18.768 110.411 18.955 110.939 18.955H111.709V20H110.719C109.641 20 108.97 19.549 108.97 18.317ZM118.64 16.964C118.64 18.867 117.232 20.099 115.494 20.099C113.767 20.099 112.458 18.867 112.458 16.964C112.458 15.061 113.822 13.84 115.549 13.84C117.276 13.84 118.64 15.061 118.64 16.964ZM113.734 16.964C113.734 18.339 114.548 19.01 115.494 19.01C116.429 19.01 117.353 18.339 117.353 16.964C117.353 15.589 116.462 14.929 115.527 14.929C114.581 14.929 113.734 15.589 113.734 16.964ZM121.134 16.81V20H119.88V13.939H121.134V14.819C121.486 14.214 122.091 13.84 122.949 13.84V15.138H122.63C121.706 15.138 121.134 15.523 121.134 16.81ZM126.653 14.896C125.806 14.896 125.124 15.468 124.992 16.425H128.347C128.325 15.49 127.588 14.896 126.653 14.896ZM129.491 18.196C129.15 19.252 128.193 20.099 126.708 20.099C124.97 20.099 123.683 18.867 123.683 16.964C123.683 15.061 124.915 13.84 126.708 13.84C128.435 13.84 129.656 15.039 129.656 16.821C129.656 17.03 129.645 17.228 129.612 17.437H124.981C125.069 18.438 125.784 19.043 126.708 19.043C127.478 19.043 127.907 18.669 128.138 18.196H129.491ZM139.523 16.964C139.523 18.867 138.115 20.099 136.377 20.099C134.65 20.099 133.341 18.867 133.341 16.964C133.341 15.061 134.705 13.84 136.432 13.84C138.159 13.84 139.523 15.061 139.523 16.964ZM134.617 16.964C134.617 18.339 135.431 19.01 136.377 19.01C137.312 19.01 138.236 18.339 138.236 16.964C138.236 15.589 137.345 14.929 136.41 14.929C135.464 14.929 134.617 15.589 134.617 16.964ZM142.017 16.81V20H140.763V13.939H142.017V14.819C142.369 14.214 142.974 13.84 143.832 13.84V15.138H143.513C142.589 15.138 142.017 15.523 142.017 16.81ZM152.363 18.306C152.363 19.329 151.472 20.099 150.042 20.099C148.59 20.099 147.567 19.241 147.512 18.141H148.81C148.854 18.636 149.327 19.043 150.02 19.043C150.746 19.043 151.131 18.735 151.131 18.317C151.131 17.129 147.611 17.811 147.611 15.589C147.611 14.621 148.513 13.84 149.943 13.84C151.318 13.84 152.22 14.577 152.286 15.787H151.032C150.988 15.259 150.581 14.896 149.899 14.896C149.228 14.896 148.876 15.171 148.876 15.578C148.876 16.799 152.297 16.117 152.363 18.306ZM153.718 20V11.86H154.972V14.643C155.39 14.137 156.072 13.84 156.853 13.84C158.206 13.84 159.262 14.731 159.262 16.425V20H158.019V16.612C158.019 15.501 157.414 14.929 156.501 14.929C155.577 14.929 154.972 15.501 154.972 16.612V20H153.718ZM160.443 16.942C160.443 15.072 161.708 13.84 163.303 13.84C164.326 13.84 165.03 14.324 165.404 14.819V13.939H166.669V20H165.404V19.098C165.019 19.615 164.293 20.099 163.281 20.099C161.708 20.099 160.443 18.812 160.443 16.942ZM165.404 16.964C165.404 15.666 164.513 14.929 163.567 14.929C162.632 14.929 161.73 15.633 161.73 16.942C161.73 18.251 162.632 19.01 163.567 19.01C164.513 19.01 165.404 18.273 165.404 16.964ZM169.57 16.81V20H168.316V13.939H169.57V14.819C169.922 14.214 170.527 13.84 171.385 13.84V15.138H171.066C170.142 15.138 169.57 15.523 169.57 16.81ZM175.09 14.896C174.243 14.896 173.561 15.468 173.429 16.425H176.784C176.762 15.49 176.025 14.896 175.09 14.896ZM177.928 18.196C177.587 19.252 176.63 20.099 175.145 20.099C173.407 20.099 172.12 18.867 172.12 16.964C172.12 15.061 173.352 13.84 175.145 13.84C176.872 13.84 178.093 15.039 178.093 16.821C178.093 17.03 178.082 17.228 178.049 17.437H173.418C173.506 18.438 174.221 19.043 175.145 19.043C175.915 19.043 176.344 18.669 176.575 18.196H177.928ZM184.571 18.559L186.342 13.939H187.64L183.922 22.849H182.624L183.856 19.901L181.469 13.939H182.866L184.571 18.559ZM194.362 16.964C194.362 18.867 192.954 20.099 191.216 20.099C189.489 20.099 188.18 18.867 188.18 16.964C188.18 15.061 189.544 13.84 191.271 13.84C192.998 13.84 194.362 15.061 194.362 16.964ZM189.456 16.964C189.456 18.339 190.27 19.01 191.216 19.01C192.151 19.01 193.075 18.339 193.075 16.964C193.075 15.589 192.184 14.929 191.249 14.929C190.303 14.929 189.456 15.589 189.456 16.964ZM201.09 13.939V20H199.836V19.274C199.44 19.791 198.758 20.088 198.043 20.088C196.624 20.088 195.546 19.197 195.546 17.503V13.939H196.789V17.316C196.789 18.427 197.394 18.999 198.307 18.999C199.231 18.999 199.836 18.427 199.836 17.316V13.939H201.09ZM203.999 16.81V20H202.745V13.939H203.999V14.819C204.351 14.214 204.956 13.84 205.814 13.84V15.138H205.495C204.571 15.138 203.999 15.523 203.999 16.81ZM211.078 14.83C211.463 14.324 212.2 13.84 213.19 13.84C214.785 13.84 216.039 15.072 216.039 16.942C216.039 18.812 214.785 20.099 213.19 20.099C212.189 20.099 211.474 19.593 211.078 19.12V22.882H209.824V13.939H211.078V14.83ZM214.763 16.942C214.763 15.633 213.861 14.929 212.915 14.929C211.98 14.929 211.078 15.666 211.078 16.964C211.078 18.273 211.98 19.01 212.915 19.01C213.861 19.01 214.763 18.251 214.763 16.942ZM219.831 14.896C218.984 14.896 218.302 15.468 218.17 16.425H221.525C221.503 15.49 220.766 14.896 219.831 14.896ZM222.669 18.196C222.328 19.252 221.371 20.099 219.886 20.099C218.148 20.099 216.861 18.867 216.861 16.964C216.861 15.061 218.093 13.84 219.886 13.84C221.613 13.84 222.834 15.039 222.834 16.821C222.834 17.03 222.823 17.228 222.79 17.437H218.159C218.247 18.438 218.962 19.043 219.886 19.043C220.656 19.043 221.085 18.669 221.316 18.196H222.669ZM225.322 16.81V20H224.068V13.939H225.322V14.819C225.674 14.214 226.279 13.84 227.137 13.84V15.138H226.818C225.894 15.138 225.322 15.523 225.322 16.81ZM232.811 18.306C232.811 19.329 231.92 20.099 230.49 20.099C229.038 20.099 228.015 19.241 227.96 18.141H229.258C229.302 18.636 229.775 19.043 230.468 19.043C231.194 19.043 231.579 18.735 231.579 18.317C231.579 17.129 228.059 17.811 228.059 15.589C228.059 14.621 228.961 13.84 230.391 13.84C231.766 13.84 232.668 14.577 232.734 15.787H231.48C231.436 15.259 231.029 14.896 230.347 14.896C229.676 14.896 229.324 15.171 229.324 15.578C229.324 16.799 232.745 16.117 232.811 18.306ZM239.941 16.964C239.941 18.867 238.533 20.099 236.795 20.099C235.068 20.099 233.759 18.867 233.759 16.964C233.759 15.061 235.123 13.84 236.85 13.84C238.577 13.84 239.941 15.061 239.941 16.964ZM235.035 16.964C235.035 18.339 235.849 19.01 236.795 19.01C237.73 19.01 238.654 18.339 238.654 16.964C238.654 15.589 237.763 14.929 236.828 14.929C235.882 14.929 235.035 15.589 235.035 16.964ZM245.481 20V16.612C245.481 15.501 244.876 14.929 243.963 14.929C243.039 14.929 242.434 15.501 242.434 16.612V20H241.18V13.939H242.434V14.632C242.841 14.137 243.512 13.84 244.238 13.84C245.657 13.84 246.724 14.731 246.724 16.425V20H245.481ZM247.906 16.942C247.906 15.072 249.171 13.84 250.766 13.84C251.789 13.84 252.493 14.324 252.867 14.819V13.939H254.132V20H252.867V19.098C252.482 19.615 251.756 20.099 250.744 20.099C249.171 20.099 247.906 18.812 247.906 16.942ZM252.867 16.964C252.867 15.666 251.976 14.929 251.03 14.929C250.095 14.929 249.193 15.633 249.193 16.942C249.193 18.251 250.095 19.01 251.03 19.01C251.976 19.01 252.867 18.273 252.867 16.964ZM255.779 20V11.86H257.033V20H255.779ZM261.119 16.942C261.119 15.072 262.384 13.84 263.99 13.84C264.782 13.84 265.618 14.214 266.08 14.786V11.86H267.345V20H266.08V19.087C265.695 19.637 264.969 20.099 263.979 20.099C262.384 20.099 261.119 18.812 261.119 16.942ZM266.08 16.964C266.08 15.666 265.189 14.929 264.243 14.929C263.308 14.929 262.406 15.633 262.406 16.942C262.406 18.251 263.308 19.01 264.243 19.01C265.189 19.01 266.08 18.273 266.08 16.964ZM268.574 16.942C268.574 15.072 269.839 13.84 271.434 13.84C272.457 13.84 273.161 14.324 273.535 14.819V13.939H274.8V20H273.535V19.098C273.15 19.615 272.424 20.099 271.412 20.099C269.839 20.099 268.574 18.812 268.574 16.942ZM273.535 16.964C273.535 15.666 272.644 14.929 271.698 14.929C270.763 14.929 269.861 15.633 269.861 16.942C269.861 18.251 270.763 19.01 271.698 19.01C272.644 19.01 273.535 18.273 273.535 16.964ZM276.645 18.317V14.962H275.93V13.939H276.645V12.432H277.91V13.939H279.384V14.962H277.91V18.317C277.91 18.768 278.086 18.955 278.614 18.955H279.384V20H278.394C277.316 20 276.645 19.549 276.645 18.317ZM280.122 16.942C280.122 15.072 281.387 13.84 282.982 13.84C284.005 13.84 284.709 14.324 285.083 14.819V13.939H286.348V20H285.083V19.098C284.698 19.615 283.972 20.099 282.96 20.099C281.387 20.099 280.122 18.812 280.122 16.942ZM285.083 16.964C285.083 15.666 284.192 14.929 283.246 14.929C282.311 14.929 281.409 15.633 281.409 16.942C281.409 18.251 282.311 19.01 283.246 19.01C284.192 19.01 285.083 18.273 285.083 16.964Z" fill="#707070"/>
    <path d="M27.5 8L21 10.7273V14.8182C21 18.6023 23.7733 22.1409 27.5 23C31.2267 22.1409 34 18.6023 34 14.8182V10.7273L27.5 8ZM27.5 15.4932H32.5556C32.1728 18.3023 30.1867 20.8045 27.5 21.5886V15.5H22.4444V11.6136L27.5 9.49318V15.4932Z" fill="#00BF4D"/>
</svg>
